<svg width="6000" height="4058" viewBox="0 0 6000 4058" fill="none" xmlns="http://www.w3.org/2000/svg">
<path d="M28.5715 0H1314.29V485.714H5971.43V1085.71H4371.43V3228.57H4914.29V2714.29H5428.57V1628.57H5971.43V3857.14H3828.57L3800 3828.57V2742.86H1942.86V3857.14H1342.86V2142.86H0V28.5715L28.5715 0Z" fill="#858582"/>
<path d="M3200 514.287H4342.86L4371.43 1085.72V3228.57H4914.29V2714.29H5428.57V1628.57H5971.43V3857.14H3828.57L3800 3828.57V2714.29H3200V514.287Z" fill="#ABACAC"/>
<path d="M28.5715 0H1314.29L1342.86 485.714V1085.71L1314.29 1628.57H1914.29V2171.43H1342.86L0 2142.86V28.5715L28.5715 0Z" fill="#E95437"/>
<path d="M5971.43 514.287H6000V3828.57H5971.43V1628.57H5428.57V2714.29H4914.28V3228.57H4371.43V1085.72H5971.43V514.287Z" fill="#283A2D"/>
<path d="M1942.86 1085.71H3171.43L3200 1600V2171.43H1942.86V1085.71Z" fill="#326B44"/>
<path d="M28.5703 0H657.142V1057.14H28.5703V0Z" fill="#F4C644"/>
<path d="M1942.86 1085.71H2542.86V2171.43H1942.86V1085.71Z" fill="#1C1E25"/>
<path d="M714.285 1628.57H1914.28V2171.43H1342.86L1314.28 2142.86L628.57 2114.29V1771.43L714.285 1628.57Z" fill="#E64F32"/>
<path d="M28.5703 1114.29H1285.71V1600H28.5703V1114.29Z" fill="#E64E34"/>
<path d="M4400 1085.71H4914.29L4942.86 1600L4914.29 2142.86H4400V1085.71Z" fill="#262E2F"/>
<path d="M4400 2171.43H4942.86L4914.29 2971.43V3228.57H4400V2171.43Z" fill="#262E30"/>
<path d="M5971.43 514.287H6000V3828.57H5971.43V1628.57H5457.14V1085.72H5971.43V514.287Z" fill="#355E44"/>
<path d="M1942.86 2742.86H3771.43V2942.86H1942.86V2742.86Z" fill="#A5A5A5"/>
<path d="M3800 3885.71H5971.43V4028.57L5914.29 4057.14H3828.57L3800 3885.71Z" fill="#A5A5A5"/>
<path d="M2571.43 3285.72H3171.43V3857.14H2600L2571.43 3828.57V3285.72Z" fill="#2C6740"/>
<path d="M1942.86 3857.14H3171.43V4028.57L3142.86 4057.14H1342.86V3885.72L1942.86 3857.14Z" fill="#A5A5A5"/>
<path d="M28.5703 1628.57H714.285L657.142 1828.57L628.57 2114.29H1314.28V2142.86H28.5703V1628.57Z" fill="#E24E34"/>
<path d="M2571.43 514.287H3171.43V1057.14H2571.43V514.287Z" fill="#F5F7F6"/>
<path d="M1942.86 514.287H2542.86V1057.14H1942.86V514.287Z" fill="#F6F6F6"/>
<path d="M1342.86 1628.57H1914.29V2171.43H1342.86V1628.57Z" fill="#F4C847"/>
<path d="M3200 514.287H3771.43V1057.14H3200V514.287Z" fill="#F7F8F7"/>
<path d="M1342.86 514.287H1914.29V1057.14H1342.86V514.287Z" fill="#F4F5F5"/>
<path d="M2571.43 2200H3171.43V2714.29H2571.43V2200Z" fill="#F5F6F6"/>
<path d="M1942.86 2200H2542.86V2714.29H1942.86V2200Z" fill="#F5F6F6"/>
<path d="M3200 1628.57H3800V2142.86H3200V1628.57Z" fill="#F5F6F6"/>
<path d="M685.715 542.857H1285.71V1057.14H685.715V542.857Z" fill="#E75137"/>
<path d="M1342.86 3314.29H1914.29V3828.57H1342.86V3314.29Z" fill="#F6F7F7"/>
<path d="M1342.86 2742.86H1914.29V3257.14H1342.86V2742.86Z" fill="#F6F7F7"/>
<path d="M1342.86 2200H1914.29V2714.29H1342.86V2200Z" fill="#F3F4F4"/>
<path d="M3200 1085.71H3771.43V1600H3200V1085.71Z" fill="#F6F7F7"/>
<path d="M1342.86 1085.71H1914.29V1600H1342.86V1085.71Z" fill="#F7F7F6"/>
<path d="M657.143 0H1314.29L1342.86 485.714V1085.71L1314.29 1628.57H28.5715V2142.86H0V28.5715H28.5715V1057.14H657.143V514.286H1285.71V28.5715H657.143V0ZM685.714 542.857V1057.14H1285.71V542.857H685.714ZM28.5715 1114.29V1600H1285.71V1114.29H28.5715Z" fill="#C15837"/>
<path d="M3800 3314.29H4342.86V3828.57H3800V3314.29Z" fill="#F6F7F6"/>
<path d="M3800 2742.86H4342.86V3257.14H3800V2742.86Z" fill="#F6F6F6"/>
<path d="M5457.14 514.287H5971.43V1057.14H5457.14V514.287Z" fill="#F6F6F6"/>
<path d="M4914.29 514.287H5428.57V1057.14H4914.29V514.287Z" fill="#F6F6F6"/>
<path d="M4371.43 514.287H4885.71V1057.14H4371.43V514.287Z" fill="#F6F6F6"/>
<path d="M3828.57 514.287H4342.86V1057.14H3828.57V514.287Z" fill="#F7F8F7"/>
<path d="M3200 2200H3771.43V2685.71H3200V2200Z" fill="#F8F9F8"/>
<path d="M628.571 28.5723H657.143V514.287H57.1426V57.1438H600L628.571 28.5723Z" fill="#F8CB40"/>
<path d="M5457.14 3314.29H5971.43V3828.57H5457.14V3314.29Z" fill="#F6F7F7"/>
<path d="M5457.14 2742.86H5971.43V3257.14H5457.14V2742.86Z" fill="#F7F8F8"/>
<path d="M5457.14 2200H5971.43V2714.29H5457.14V2200Z" fill="#F5F5F5"/>
<path d="M3828.57 2200H4342.86V2714.29H3828.57V2200Z" fill="#F7F8F8"/>
<path d="M5457.14 1628.57H5971.43V2142.86H5457.14V1628.57Z" fill="#F6F7F7"/>
<path d="M3828.57 1628.57H4342.86V2142.86H3828.57V1628.57Z" fill="#F7F9F8"/>
<path d="M3828.57 1085.71H4342.86V1600H3828.57V1085.71Z" fill="#F6F7F7"/>
<path d="M0 2171.43H1314.29V2371.43H0V2171.43Z" fill="#A5A5A5"/>
<path d="M4942.86 3314.29H5428.57V3828.57H4942.86V3314.29Z" fill="#F8F8F8"/>
<path d="M4400 3314.29H4885.71V3828.57H4400V3314.29Z" fill="#F8F8F8"/>
<path d="M4942.86 2742.86H5428.57V3257.14H4942.86V2742.86Z" fill="#F8F8F8"/>
<path d="M1342.86 2171.43H3200V2714.29H3800V2742.86H1942.86V3857.14H1342.86V3828.57H1914.29V3314.29H1342.86V3257.14H1914.29V2742.86H1342.86V2714.29H1914.29V2200H1342.86V2171.43ZM1942.86 2200V2714.29H2542.86V2200H1942.86ZM2571.43 2200V2714.29H3171.43V2200H2571.43Z" fill="#8B8C8E"/>
<path d="M4914.29 2714.29H5428.57V2742.86H4942.86V3257.14H5428.57V3314.29H4942.86V3828.57H4885.71V3314.29H4400V3828.57H4371.43L4342.86 3228.57H4914.29V2714.29Z" fill="#BBBCBB"/>
<path d="M1942.86 1085.71H2514.28V1257.14L2457.14 1285.71H2000L1942.86 1257.14V1085.71Z" fill="#0B0914"/>
<path d="M4342.86 3228.57H4885.71V3314.29H4400V3828.57H4371.43L4342.86 3228.57Z" fill="#CECECF"/>
</svg>
