<svg width="6484" height="4058" viewBox="0 0 6484 4058" fill="none" xmlns="http://www.w3.org/2000/svg">
<path d="M512.571 0H1798.29V485.714H6455.43V1085.71H4855.43V3228.57H5398.29V2714.29H5912.57V1628.57H6455.43V3857.14H4312.57L4284 3828.57V2742.86H2426.86V3857.14H1826.86V2142.86H484V28.5715L512.571 0Z" fill="#858582"/>
<path d="M3684 514.287H4826.86L4855.43 1085.72V3228.57H5398.29V2714.29H5912.57V1628.57H6455.43V3857.14H4312.57L4284 3828.57V2714.29H3684V514.287Z" fill="#ABACAC"/>
<path d="M512.571 0H1798.29L1826.86 485.714V1085.71L1798.29 1628.57H2398.29V2171.43H1826.86L484 2142.86V28.5715L512.571 0Z" fill="#E95437"/>
<path d="M6455.43 514.287H6484V3828.57H6455.43V1628.57H5912.57V2714.29H5398.28V3228.57H4855.43V1085.72H6455.43V514.287Z" fill="#283A2D"/>
<path d="M2426.86 1085.71H3655.43L3684 1600V2171.43H2426.86V1085.71Z" fill="#326B44"/>
<path d="M512.57 0H1141.14V1057.14H512.57V0Z" fill="#F4C644"/>
<path d="M2426.86 1085.71H3026.86V2171.43H2426.86V1085.71Z" fill="#1C1E25"/>
<path d="M1198.28 1628.57H2398.28V2171.43H1826.86L1798.28 2142.86L1112.57 2114.29V1771.43L1198.28 1628.57Z" fill="#E64F32"/>
<path d="M512.57 1114.29H1769.71V1600H512.57V1114.29Z" fill="#E64E34"/>
<path d="M4884 1085.71H5398.29L5426.86 1600L5398.29 2142.86H4884V1085.71Z" fill="#262E2F"/>
<path d="M4884 2171.43H5426.86L5398.29 2971.43V3228.57H4884V2171.43Z" fill="#262E30"/>
<path d="M6455.43 514.287H6484V3828.57H6455.43V1628.57H5941.14V1085.72H6455.43V514.287Z" fill="#355E44"/>
<path d="M2426.86 2742.86H4255.43V2942.86H2426.86V2742.86Z" fill="#A5A5A5"/>
<path d="M4284 3885.71H6455.43V4028.57L6398.29 4057.14H4312.57L4284 3885.71Z" fill="#A5A5A5"/>
<path d="M3055.43 3285.72H3655.43V3857.14H3084L3055.43 3828.57V3285.72Z" fill="#2C6740"/>
<path d="M2426.86 3857.14H3655.43V4028.57L3626.86 4057.14H1826.86V3885.72L2426.86 3857.14Z" fill="#A5A5A5"/>
<path d="M512.57 1628.57H1198.28L1141.14 1828.57L1112.57 2114.29H1798.28V2142.86H512.57V1628.57Z" fill="#E24E34"/>
<path d="M3055.43 514.287H3655.43V1057.14H3055.43V514.287Z" fill="#F5F7F6"/>
<path d="M2426.86 514.287H3026.86V1057.14H2426.86V514.287Z" fill="#F6F6F6"/>
<path d="M1826.86 1628.57H2398.29V2171.43H1826.86V1628.57Z" fill="#F4C847"/>
<path d="M3684 514.287H4255.43V1057.14H3684V514.287Z" fill="#F7F8F7"/>
<path d="M1826.86 514.287H2398.29V1057.14H1826.86V514.287Z" fill="#F4F5F5"/>
<path d="M3055.43 2200H3655.43V2714.29H3055.43V2200Z" fill="#F5F6F6"/>
<path d="M2426.86 2200H3026.86V2714.29H2426.86V2200Z" fill="#F5F6F6"/>
<path d="M3684 1628.57H4284V2142.86H3684V1628.57Z" fill="#F5F6F6"/>
<path d="M1169.71 542.857H1769.71V1057.14H1169.71V542.857Z" fill="#E75137"/>
<path d="M1826.86 3314.29H2398.29V3828.57H1826.86V3314.29Z" fill="#F6F7F7"/>
<path d="M1826.86 2742.86H2398.29V3257.14H1826.86V2742.86Z" fill="#F6F7F7"/>
<path d="M1826.86 2200H2398.29V2714.29H1826.86V2200Z" fill="#F3F4F4"/>
<path d="M3684 1085.71H4255.43V1600H3684V1085.71Z" fill="#F6F7F7"/>
<path d="M1826.86 1085.71H2398.29V1600H1826.86V1085.71Z" fill="#F7F7F6"/>
<path d="M1141.14 0H1798.29L1826.86 485.714V1085.71L1798.29 1628.57H512.571V2142.86H484V28.5715H512.571V1057.14H1141.14V514.286H1769.71V28.5715H1141.14V0ZM1169.71 542.857V1057.14H1769.71V542.857H1169.71ZM512.571 1114.29V1600H1769.71V1114.29H512.571Z" fill="#C15837"/>
<path d="M4284 3314.29H4826.86V3828.57H4284V3314.29Z" fill="#F6F7F6"/>
<path d="M4284 2742.86H4826.86V3257.14H4284V2742.86Z" fill="#F6F6F6"/>
<path d="M5941.14 514.287H6455.43V1057.14H5941.14V514.287Z" fill="#F6F6F6"/>
<path d="M5398.29 514.287H5912.57V1057.14H5398.29V514.287Z" fill="#F6F6F6"/>
<path d="M4855.43 514.287H5369.71V1057.14H4855.43V514.287Z" fill="#F6F6F6"/>
<path d="M4312.57 514.287H4826.86V1057.14H4312.57V514.287Z" fill="#F7F8F7"/>
<path d="M3684 2200H4255.43V2685.71H3684V2200Z" fill="#F8F9F8"/>
<path d="M1112.57 28.5723H1141.14V514.287H541.143V57.1438H1084L1112.57 28.5723Z" fill="#F8CB40"/>
<path d="M5941.14 3314.29H6455.43V3828.57H5941.14V3314.29Z" fill="#F6F7F7"/>
<path d="M5941.14 2742.86H6455.43V3257.14H5941.14V2742.86Z" fill="#F7F8F8"/>
<path d="M5941.14 2200H6455.43V2714.29H5941.14V2200Z" fill="#F5F5F5"/>
<path d="M4312.57 2200H4826.86V2714.29H4312.57V2200Z" fill="#F7F8F8"/>
<path d="M5941.14 1628.57H6455.43V2142.86H5941.14V1628.57Z" fill="#F6F7F7"/>
<path d="M4312.57 1628.57H4826.86V2142.86H4312.57V1628.57Z" fill="#F7F9F8"/>
<path d="M4312.57 1085.71H4826.86V1600H4312.57V1085.71Z" fill="#F6F7F7"/>
<path d="M484 2171.43H1798.29V2371.43H484V2171.43Z" fill="#A5A5A5"/>
<path d="M5426.86 3314.29H5912.57V3828.57H5426.86V3314.29Z" fill="#F8F8F8"/>
<path d="M4884 3314.29H5369.71V3828.57H4884V3314.29Z" fill="#F8F8F8"/>
<path d="M5426.86 2742.86H5912.57V3257.14H5426.86V2742.86Z" fill="#F8F8F8"/>
<path d="M1826.86 2171.43H3684V2714.29H4284V2742.86H2426.86V3857.14H1826.86V3828.57H2398.29V3314.29H1826.86V3257.14H2398.29V2742.86H1826.86V2714.29H2398.29V2200H1826.86V2171.43ZM2426.86 2200V2714.29H3026.86V2200H2426.86ZM3055.43 2200V2714.29H3655.43V2200H3055.43Z" fill="#8B8C8E"/>
<path d="M5398.29 2714.29H5912.57V2742.86H5426.86V3257.14H5912.57V3314.29H5426.86V3828.57H5369.71V3314.29H4884V3828.57H4855.43L4826.86 3228.57H5398.29V2714.29Z" fill="#BBBCBB"/>
<path d="M2426.86 1085.71H2998.28V1257.14L2941.14 1285.71H2484L2426.86 1257.14V1085.71Z" fill="#0B0914"/>
<path d="M4826.86 3228.57H5369.71V3314.29H4884V3828.57H4855.43L4826.86 3228.57Z" fill="#CECECF"/>
<path d="M998.388 3097.84L655.747 2755.2C602.858 2702.31 510.444 2702.31 457.555 2755.2C402.96 2809.8 402.96 2898.8 457.555 2953.4L513.003 3008.84H155.007C69.7024 3008.84 0.605469 3077.94 0.605469 3163.53C0.605469 3249.12 69.7024 3317.93 155.292 3317.93H513.287L457.555 3373.1C431.11 3399.54 416.324 3435.08 416.324 3472.33C416.324 3549.68 479.165 3612.52 556.509 3612.52C593.758 3612.52 629.302 3598.02 655.747 3571.57L998.388 3228.93C1034.5 3192.82 1034.5 3133.96 998.388 3097.84ZM954.882 3185.14L612.241 3527.78C582.669 3557.35 530.917 3557.35 501.345 3527.78C470.635 3497.07 470.919 3447.59 501.345 3416.88L609.398 3308.83C615.085 3303.15 618.497 3295.18 618.497 3286.94C618.497 3269.88 604.564 3255.94 587.503 3256.23H155.007C103.824 3256.23 62.3093 3214.71 62.3093 3163.53C62.3093 3112.35 103.824 3070.83 155.007 3070.83H587.787C596.033 3070.83 603.995 3067.7 609.682 3061.73C621.625 3049.79 621.625 3030.17 609.682 3017.94L501.629 2909.89C470.919 2879.18 471.204 2829.7 501.629 2798.99C531.201 2769.42 582.953 2769.42 612.525 2798.99L955.166 3141.63C967.109 3153.58 967.109 3172.91 954.882 3185.14Z" fill="white"/>
</svg>
